<svg xmlns="http://www.w3.org/2000/svg" width="173" height="76" viewBox="0.11 -0.219 173 76" overflow="visible"><path fill-rule="evenodd" clip-rule="evenodd" fill="#68043C" d="M122.72 12.496c-1.392-1.01-3.113-1.538-5.044-1.538-5.084 0-8.917 4.074-8.917 9.478 0 5.384 3.833 9.444 8.917 9.444 1.895 0 3.703-.648 5.11-1.807v1.312h6.775V11.453h-6.842v1.043zm-3.295 11.4c-2.07 0-3.461-1.391-3.461-3.46 0-2.024 1.455-3.494 3.461-3.494 1.954 0 3.428 1.502 3.428 3.494 0 2.037-1.41 3.46-3.428 3.46zM34.482 10.958c-5.408 0-9.807 4.251-9.807 9.478 0 5.207 4.399 9.444 9.807 9.444 4.259 0 7.357-1.57 9.208-4.667l.276-.462-5.041-2.521-.255.272c-1.309 1.401-2.012 1.723-3.76 1.723-1.013 0-2.861-.537-3.13-2.498h12.17l.069-.419c.037-.22.04-.538.04-.873 0-5.757-3.759-9.477-9.577-9.477zm-2.486 6.535c.288-1.1 1.244-1.739 2.652-1.739 1.316 0 2.213.612 2.576 1.739h-5.228zm-9.321-7.751c0-5.297-3.593-8.587-9.378-8.587H3.061v28.229h7.205v-9.796l7.572 9.796h9.201l-9.6-11.524c3.339-1.334 5.236-4.255 5.236-8.118zm-12.184 3.493h-.226V7.106h.226c2.543 0 4.649.23 4.649 3.064s-2.105 3.065-4.649 3.065zm162.69 8.076c.037-.221.04-.54.04-.875 0-5.758-3.759-9.478-9.576-9.478-5.408 0-9.808 4.251-9.808 9.478 0 5.207 4.399 9.444 9.808 9.444 4.259 0 7.357-1.57 9.208-4.667l.277-.462-5.041-2.521-.255.272c-1.309 1.401-2.012 1.723-3.761 1.723-1.013 0-2.861-.537-3.13-2.498h12.167l.071-.416zm-12.023-3.818c.286-1.1 1.243-1.739 2.651-1.739 1.316 0 2.213.612 2.575 1.739h-5.226zm-15.899-4.997c-1.392-1.01-3.113-1.538-5.044-1.538-5.084 0-8.917 4.074-8.917 9.478 0 5.384 3.833 9.444 8.917 9.444 1.895 0 3.703-.648 5.11-1.807v1.312h6.775V0h-6.842v12.496zm-3.295 11.4c-2.07 0-3.461-1.391-3.461-3.46 0-2.024 1.455-3.494 3.461-3.494 1.954 0 3.428 1.502 3.428 3.494 0 2.037-1.41 3.46-3.428 3.46zM56.989 10.958c-1.815 0-3.32.822-4.417 1.713v-1.218H45.73v17.932h6.842V19.313c0-1.388 1.497-2.801 2.965-2.801 1.647 0 2.537 1.442 2.537 2.801v10.071h6.842V17.729c-.001-5.345-4.983-6.771-7.927-6.771zm43.192 1.536c-1.403-1.021-3.096-1.536-5.044-1.536-5.083 0-8.917 4.074-8.917 9.478 0 5.384 3.833 9.444 8.917 9.444 1.714 0 3.596-.151 5.044-1.128v.166c0 2.731-2.278 3.46-3.625 3.46-2.684 0-3.804-1.356-4.161-1.939l-.238-.388-5.622 2.753.189.438c1.517 3.513 4.733 5.22 9.833 5.22 6.456 0 10.467-3.492 10.467-9.114V11.453h-6.842v1.041zm-3.295 11.402c-2.07 0-3.461-1.391-3.461-3.46 0-2.024 1.455-3.494 3.461-3.494 1.954 0 3.428 1.502 3.428 3.494-.001 2.037-1.41 3.46-3.428 3.46zM76.128 10.958c-5.408 0-9.807 4.251-9.807 9.478 0 5.207 4.399 9.444 9.807 9.444 4.259 0 7.357-1.57 9.208-4.667l.276-.462-5.041-2.521-.255.272c-1.31 1.401-2.012 1.723-3.76 1.723-1.013 0-2.861-.537-3.13-2.498h12.169l.069-.419c.037-.22.04-.538.04-.873.001-5.757-3.758-9.477-9.576-9.477zm-2.486 6.535c.288-1.1 1.244-1.739 2.652-1.739 1.316 0 2.213.612 2.576 1.739h-5.228z"/><path fill-rule="evenodd" clip-rule="evenodd" fill="#1E1E1E" d="M37.919 51.861c-1.258-.888-2.803-1.352-4.532-1.352-4.64 0-8.138 3.718-8.138 8.647 0 4.912 3.499 8.617 8.138 8.617a7.348 7.348 0 004.592-1.589v1.14h6.242v-26.76h-6.302v11.297zm-2.944 10.391c-1.851 0-3.094-1.244-3.094-3.095 0-1.811 1.301-3.124 3.094-3.124 1.747 0 3.064 1.343 3.064 3.124.001 1.822-1.26 3.095-3.064 3.095zM10.378 41.613L0 67.325h7.14l1.827-4.942h8.709l1.827 4.942h7.14L16.265 41.613h-5.887zm.885 14.827l2.059-5.37 2.059 5.37h-4.118zm48.112-4.579c-1.258-.888-2.803-1.352-4.532-1.352-4.64 0-8.138 3.718-8.138 8.647 0 4.913 3.499 8.617 8.138 8.617a7.348 7.348 0 004.592-1.589v1.14h6.242V50.959h-6.302v.902zm-2.944 10.391c-1.851 0-3.094-1.244-3.094-3.095 0-1.811 1.301-3.124 3.094-3.124 1.747 0 3.064 1.343 3.064 3.124.001 1.822-1.26 3.095-3.064 3.095zm88.67-11.742c-1.62 0-2.968.714-3.963 1.504v-1.055h-6.302v16.366h6.302v-9.187c0-1.236 1.335-2.495 2.646-2.495 1.465 0 2.256 1.285 2.256 2.495v9.187h6.302V56.701c-.001-4.888-4.552-6.191-7.241-6.191zm-56.963-2.804c2.657 0 4.528 1.409 4.547 1.424l.481.368 2.845-5.689-.307-.254c-.118-.097-2.957-2.391-8.436-2.391-7.529 0-13.889 6.114-13.889 13.351 0 7.188 6.36 13.26 13.889 13.26 5.479 0 8.317-2.293 8.436-2.391l.307-.254-2.846-5.691-.481.372c-.019.014-1.872 1.423-4.546 1.423-5.021 0-7.648-3.41-7.648-6.779 0-2.714 2.036-6.749 7.648-6.749zm78.057 3.253v.901c-1.268-.897-2.788-1.351-4.532-1.351-4.64 0-8.139 3.718-8.139 8.647 0 4.912 3.499 8.617 8.139 8.617 1.535 0 3.218-.133 4.532-.983v.064c0 2.442-2.039 3.094-3.244 3.094-2.412 0-3.417-1.216-3.737-1.738l-.238-.388-5.18 2.537.189.438c1.385 3.206 4.317 4.765 8.966 4.765 5.888 0 9.546-3.188 9.546-8.318V50.959h-6.302zm-2.945 11.293c-1.851 0-3.094-1.244-3.094-3.095 0-1.811 1.301-3.124 3.094-3.124 1.747 0 3.064 1.343 3.064 3.124 0 1.822-1.259 3.095-3.064 3.095zM124.675 50.51c-4.934 0-8.947 3.879-8.947 8.647 0 4.752 4.014 8.617 8.947 8.617 3.883 0 6.708-1.433 8.396-4.257l.277-.463-4.65-2.325-.255.272c-1.19 1.273-1.79 1.549-3.379 1.549-.961 0-2.532-.473-2.789-2.175h11.029l.07-.417c.034-.204.037-.496.037-.802.001-5.252-3.429-8.646-8.736-8.646zm-2.196 5.93c.274-.94 1.117-1.486 2.346-1.486 1.147 0 1.938.522 2.272 1.486h-4.618zm-15.175-5.93c-1.62 0-2.968.714-3.963 1.504V40.565h-6.302v26.76h6.302v-9.187c0-1.236 1.335-2.495 2.646-2.495 1.465 0 2.256 1.285 2.256 2.495v9.187h6.302V56.701c-.001-4.888-4.552-6.191-7.241-6.191z"/></svg>